<svg xmlns="http://www.w3.org/2000/svg" width="512" height="512" fill="none" viewBox="0 0 512 512"><g clip-path="url(#clip0_3_2)"><mask id="mask0_3_2" width="512" height="512" x="0" y="0" maskUnits="userSpaceOnUse" style="mask-type:luminance"><path fill="#fff" d="M512 0H0V512H512V0Z"/></mask><g mask="url(#mask0_3_2)"><path fill="#0043ce" d="M244.179 506.564C244.179 480.054 222.689 458.564 196.179 458.564C169.669 458.564 147.941 480.054 147.941 506.564C147.941 506.564 156.19 506.564 195.595 506.564C235 506.564 244.179 506.564 244.179 506.564Z"/><path stroke="#262626" stroke-width="10" d="M244.179 506.564C244.179 480.054 222.689 458.564 196.179 458.564C169.669 458.564 147.941 480.054 147.941 506.564C147.941 506.564 156.19 506.564 195.595 506.564C235 506.564 244.179 506.564 244.179 506.564Z"/><path fill="#0f62fe" d="M244.179 506.564C244.179 480.054 222.689 458.564 196.179 458.564C169.669 458.564 147.941 480.054 147.941 506.564C147.941 506.564 146.441 506.564 195.221 506.564C244.001 506.564 244.179 506.564 244.179 506.564Z"/><path stroke="#262626" stroke-linecap="round" stroke-linejoin="round" stroke-width="10" d="M244.179 506.564C244.179 480.054 222.689 458.564 196.179 458.564C169.669 458.564 147.941 480.054 147.941 506.564C147.941 506.564 146.441 506.564 195.221 506.564C244.001 506.564 244.179 506.564 244.179 506.564Z"/><path fill="#0043ce" d="M364.179 506.564C364.179 480.054 342.689 458.564 316.179 458.564C289.669 458.564 267.941 480.054 267.941 506.564C267.941 506.564 276.19 506.564 315.595 506.564C355 506.564 364.179 506.564 364.179 506.564Z"/><path stroke="#262626" stroke-width="10" d="M364.179 506.564C364.179 480.054 342.689 458.564 316.179 458.564C289.669 458.564 267.941 480.054 267.941 506.564C267.941 506.564 276.19 506.564 315.595 506.564C355 506.564 364.179 506.564 364.179 506.564Z"/><path fill="#0f62fe" d="M364.179 506.564C364.179 480.054 342.689 458.564 316.179 458.564C289.669 458.564 267.941 480.054 267.941 506.564C267.941 506.564 266.441 506.564 315.221 506.564C364.001 506.564 364.179 506.564 364.179 506.564Z"/><path stroke="#262626" stroke-linecap="round" stroke-linejoin="round" stroke-width="10" d="M364.179 506.564C364.179 480.054 342.689 458.564 316.179 458.564C289.669 458.564 267.941 480.054 267.941 506.564C267.941 506.564 266.441 506.564 315.221 506.564C364.001 506.564 364.179 506.564 364.179 506.564Z"/><path fill="#e0e0e0" d="M394.857 272.562L370.857 272.562C365.334 272.562 360.857 268.085 360.856 262.562L360.856 222.562C360.856 217.039 365.333 212.562 370.856 212.562L394.856 212.562C400.379 212.562 404.856 217.039 404.856 222.562L404.856 262.562C404.857 268.085 400.38 272.562 394.857 272.562Z"/><path stroke="#262626" stroke-miterlimit="10" stroke-width="10" d="M394.857 272.562L370.857 272.562C365.334 272.562 360.857 268.085 360.856 262.562L360.856 222.562C360.856 217.039 365.333 212.562 370.856 212.562L394.856 212.562C400.379 212.562 404.856 217.039 404.856 222.562L404.856 262.562C404.857 268.085 400.38 272.562 394.857 272.562Z"/><path fill="#e0e0e0" d="M140.857 272.564L116.857 272.564C111.334 272.564 106.857 268.087 106.856 262.564L106.856 222.564C106.856 217.041 111.333 212.564 116.856 212.564L140.856 212.564C146.379 212.564 150.856 217.041 150.856 222.564L150.856 262.564C150.857 268.087 146.38 272.564 140.857 272.564Z"/><path stroke="#262626" stroke-miterlimit="10" stroke-width="10" d="M140.857 272.564L116.857 272.564C111.334 272.564 106.857 268.087 106.856 262.564L106.856 222.564C106.856 217.041 111.333 212.564 116.856 212.564L140.856 212.564C146.379 212.564 150.856 217.041 150.856 222.564L150.856 262.564C150.857 268.087 146.38 272.564 140.857 272.564Z"/><path fill="#a8a8a8" d="M333.991 320.39L178.009 320.392C151.494 320.392 130 298.898 130 272.383L129.999 212.401C129.999 185.886 151.493 164.392 178.008 164.392L333.99 164.39C360.505 164.39 381.999 185.884 381.999 212.399L382 272.381C382 298.896 360.506 320.39 333.991 320.39Z"/><path stroke="#262626" stroke-miterlimit="10" stroke-width="10" d="M333.991 320.39L178.009 320.392C151.494 320.392 130 298.898 130 272.383L129.999 212.401C129.999 185.886 151.493 164.392 178.008 164.392L333.99 164.39C360.505 164.39 381.999 185.884 381.999 212.399L382 272.381C382 298.896 360.506 320.39 333.991 320.39Z"/><path fill="#e0e0e0" d="M246 426.141C218.386 426.141 196 403.755 196 376.141L196 336.391C196 336.391 198.5 336.391 257.5 336.391C316.5 336.391 316 336.391 316 336.391L316 376.141C316 403.755 293.614 426.141 266 426.141L246 426.141Z"/><path stroke="#262626" stroke-miterlimit="10" stroke-width="10" d="M246 426.141C218.386 426.141 196 403.755 196 376.141L196 336.391C196 336.391 198.5 336.391 257.5 336.391C316.5 336.391 316 336.391 316 336.391L316 376.141C316 403.755 293.614 426.141 266 426.141L246 426.141Z"/><path fill="#e0e0e0" d="M333.991 320.39L178.009 320.392C151.494 320.392 130 298.898 130 272.383L129.999 212.401C129.999 185.886 151.493 164.392 178.008 164.392L333.99 164.39C360.505 164.39 381.999 185.884 381.999 212.399L382 272.381C382 298.896 360.506 320.39 333.991 320.39Z"/><path stroke="#262626" stroke-miterlimit="10" stroke-width="10" d="M333.991 320.39L178.009 320.392C151.494 320.392 130 298.898 130 272.383L129.999 212.401C129.999 185.886 151.493 164.392 178.008 164.392L333.99 164.39C360.505 164.39 381.999 185.884 381.999 212.399L382 272.381C382 298.896 360.506 320.39 333.991 320.39Z"/><path fill="#f4f4f4" d="M321.512 320.39L190.488 320.392C168.215 320.392 150.16 298.898 150.16 272.383L150.159 212.401C150.159 185.886 168.214 164.392 190.486 164.392L321.511 164.39C343.784 164.39 361.839 185.884 361.839 212.399L361.84 272.381C361.84 298.896 343.785 320.39 321.512 320.39Z"/><path stroke="#262626" stroke-miterlimit="10" stroke-width="10" d="M333.991 320.39L178.009 320.392C151.494 320.392 130 298.898 130 272.383L129.999 212.401C129.999 185.886 151.493 164.392 178.008 164.392L333.99 164.39C360.505 164.39 381.999 185.884 381.999 212.399L382 272.381C382 298.896 360.506 320.39 333.991 320.39Z"/><path stroke="#262626" stroke-linecap="round" stroke-linejoin="round" stroke-width="10" d="M226.336 284.391C238.294 289.054 247.274 291.347 256.43 291.269C265.284 291.193 274.302 288.9 286.336 284.391C286.336 284.391 272.54 291.374 256.57 291.228C240.6 291.082 226.336 284.391 226.336 284.391Z"/><path fill="#262626" d="M226.336 284.391C238.294 289.054 247.274 291.347 256.43 291.269 265.284 291.193 274.302 288.9 286.336 284.391 286.336 284.391 272.54 291.374 256.57 291.228 240.6 291.082 226.336 284.391 226.336 284.391ZM284.106 240.563C284.106 225.237 296.082 212.813 310.856 212.812 325.63 212.812 337.606 225.236 337.606 240.562 337.606 255.888 325.631 268.312 310.857 268.312 296.083 268.313 284.106 255.889 284.106 240.563Z"/><path fill="#fff" d="M309.856 236.562C309.856 232.699 312.993 229.562 316.856 229.562C320.719 229.562 323.856 232.699 323.856 236.562C323.856 240.426 320.72 243.562 316.856 243.562C312.993 243.562 309.856 240.426 309.856 236.562Z"/><path fill="#262626" d="M172.106 240.564C172.106 225.238 184.082 212.814 198.856 212.814C213.63 212.813 225.606 225.237 225.606 240.563C225.606 255.889 213.631 268.313 198.857 268.314C184.083 268.314 172.106 255.89 172.106 240.564Z"/><path fill="#fff" d="M197.856 236.564C197.856 232.7 200.993 229.563 204.856 229.563C208.719 229.563 211.856 232.7 211.856 236.563C211.856 240.427 208.72 243.563 204.856 243.563C200.993 243.563 197.856 240.427 197.856 236.564Z"/><path fill="url(#paint0_linear_3_2)" d="M394.578 194.391C399.406 194.391 403.801 191.611 405.871 187.249C409.277 180.071 405.211 171.578 397.483 169.732L384.999 165.316C384.998 97.7118 327.243 42.9073 255.997 42.908C184.752 42.9086 126.998 97.7142 126.999 165.318L114.515 169.734C106.787 171.58 102.721 180.073 106.127 187.251C108.197 191.613 112.592 194.393 117.42 194.393C117.42 194.393 164.307 194.393 256.403 194.392C348.499 194.391 394.578 194.391 394.578 194.391Z"/><path stroke="#262626" stroke-linejoin="round" stroke-width="8.976" d="M394.578 194.391C399.406 194.391 403.801 191.611 405.871 187.249C409.277 180.071 405.211 171.578 397.483 169.732L384.999 165.316C384.998 97.7118 327.243 42.9073 255.997 42.908C184.752 42.9086 126.998 97.7142 126.999 165.318L114.515 169.734C106.787 171.58 102.721 180.073 106.127 187.251C108.197 191.613 112.592 194.393 117.42 194.393C117.42 194.393 164.307 194.393 256.403 194.392C348.499 194.391 394.578 194.391 394.578 194.391Z"/><path stroke="#262626" stroke-linecap="round" stroke-width="10" d="M157.999 159.438C235.008 149.688 277.942 149.244 353.999 159.436"/><path fill="url(#paint1_linear_3_2)" d="M219.998 121.437L219.998 45.4373C219.997 39.9143 224.474 35.4373 229.997 35.4372L281.997 35.4368C287.52 35.4367 291.997 39.9137 291.998 45.4367L291.998 121.437"/><path stroke="#262626" stroke-linecap="round" stroke-miterlimit="10" stroke-width="10" d="M219.998 121.437L219.998 45.4373C219.997 39.9143 224.474 35.4373 229.997 35.4372L281.997 35.4368C287.52 35.4367 291.997 39.9137 291.998 45.4367L291.998 121.437"/><path stroke="#262626" stroke-linecap="round" stroke-miterlimit="10" stroke-width="50" d="M158.918 422.391C160 382.5 161.682 354.374 161.682 354.374"/><path stroke="#e0e0e0" stroke-linecap="round" stroke-miterlimit="10" stroke-width="30" d="M158.918 422.391C160 382.5 161.682 354.374 161.682 354.374"/><path stroke="#262626" stroke-linecap="round" stroke-miterlimit="10" stroke-width="50" d="M355.205 418.391C354.499 380 350.969 354.374 350.969 354.374"/><path stroke="#e0e0e0" stroke-linecap="round" stroke-miterlimit="10" stroke-width="30" d="M355.205 418.391C354.499 380 350.969 354.374 350.969 354.374"/><path stroke="#262626" stroke-miterlimit="10" stroke-width="20" d="M153.653 407.228C136.423 409.343 123.663 423.643 122.946 440.432C122.816 443.503 125.509 445.946 128.561 445.572L187.276 438.362C190.327 437.988 192.349 434.966 191.48 432.018C186.723 415.9 170.882 405.112 153.653 407.228ZM153.653 407.228C172.839 404.872 190.301 418.516 192.657 437.702L158.166 441.937C158.166 441.937 134.467 409.584 153.653 407.228ZM153.653 407.228C134.467 409.584 120.823 427.046 123.179 446.232L157.67 441.997C157.67 441.997 172.839 404.872 153.653 407.228Z"/><path fill="#f4f4f4" d="M128.561 445.572C125.509 445.946 122.816 443.503 122.946 440.432C123.663 423.643 136.423 409.343 153.653 407.228C170.882 405.112 186.723 415.9 191.48 432.018C192.349 434.966 190.327 437.988 187.276 438.362L128.561 445.572Z"/><path fill="#f4f4f4" d="M153.653 407.228C172.839 404.872 190.302 418.516 192.657 437.702L158.166 441.937C158.166 441.937 134.467 409.584 153.653 407.228Z"/><path fill="#f4f4f4" d="M153.653 407.228C134.467 409.584 120.823 427.046 123.179 446.232L157.67 441.997C157.67 441.997 172.839 404.872 153.653 407.228Z"/><path stroke="#262626" stroke-miterlimit="10" stroke-width="20" d="M356.681 407.261C339.536 404.545 323.328 414.774 318.012 430.715C317.04 433.631 318.956 436.722 321.992 437.203L380.42 446.457C383.456 446.938 386.233 444.59 386.21 441.517C386.08 424.713 373.826 409.976 356.681 407.261ZM356.681 407.261C375.773 410.285 388.799 428.213 385.775 447.305L351.453 441.869C351.453 441.869 337.589 404.237 356.681 407.261ZM356.681 407.261C337.589 404.237 319.661 417.263 316.637 436.355L350.959 441.791C350.959 441.791 375.773 410.285 356.681 407.261Z"/><path fill="#f4f4f4" d="M321.992 437.203C318.956 436.722 317.04 433.631 318.012 430.715C323.328 414.774 339.536 404.545 356.681 407.261C373.827 409.976 386.08 424.713 386.21 441.517C386.233 444.59 383.456 446.938 380.42 446.457L321.992 437.203Z"/><path fill="#f4f4f4" d="M356.681 407.261C375.773 410.285 388.799 428.213 385.775 447.305L351.453 441.869C351.453 441.869 337.589 404.237 356.681 407.261Z"/><path fill="#f4f4f4" d="M356.681 407.261C337.589 404.237 319.661 417.263 316.637 436.355L350.959 441.791C350.959 441.791 375.773 410.285 356.681 407.261Z"/></g><path fill="#105fff" d="M258.805 359.668C258.404 360.71 255.199 369.605 251.673 379.542 247.185 392.444 245.582 397.974 246.143 398.936 247.185 401.019 250.791 401.74 251.993 400.138 252.554 399.416 255.92 390.281 259.606 379.783 266.658 359.347 266.819 358.546 262.171 358.065 260.167 357.825 259.446 358.225 258.805 359.668ZM230.356 370.567C217.694 379.783 217.694 379.863 227.711 387.316 239.171 395.89 239.492 396.051 240.774 394.688 241.335 394.047 242.136 392.605 242.377 391.403 242.857 389.479 242.377 388.918 237.248 385.072 234.122 382.668 231.558 380.504 231.558 380.183 231.558 379.863 234.122 377.699 237.168 375.455 240.293 373.211 243.098 370.807 243.498 370.006 244.38 368.403 242.537 363.515 241.014 363.515 240.453 363.595 235.645 366.72 230.356 370.567ZM268.822 366.079C267.38 369.525 268.021 370.567 274.832 375.455 277.878 377.699 280.442 379.863 280.442 380.183 280.442 380.504 277.878 382.668 274.752 385.072 269.623 388.918 269.143 389.479 269.623 391.403 269.864 392.605 270.665 394.047 271.226 394.688 272.508 396.051 272.829 395.89 284.289 387.316 294.306 379.863 294.306 379.783 281.644 370.567 276.355 366.72 271.547 363.595 270.986 363.515 270.425 363.515 269.463 364.717 268.822 366.079Z"/></g><defs><linearGradient id="paint0_linear_3_2" x1="176.998" x2="348.807" y1="98.0017" y2="217.518" gradientUnits="userSpaceOnUse"><stop stop-color="#0f62fe"/><stop offset="0.5" stop-color="#5a68fe"/><stop offset="1" stop-color="#a56eff"/></linearGradient><linearGradient id="paint1_linear_3_2" x1="258.034" x2="257.302" y1="58.266" y2="75.733" gradientUnits="userSpaceOnUse"><stop stop-color="#0f62fe"/><stop offset="0.41" stop-color="#0f62fe" stop-opacity="0.5"/><stop offset="1" stop-color="#0f62fe" stop-opacity="0"/></linearGradient><clipPath id="clip0_3_2"><path fill="#fff" d="M0 0H512V512H0z"/></clipPath></defs></svg>